<svg width="30" height="26" viewBox="0 0 30 26" fill="none" xmlns="http://www.w3.org/2000/svg">
<path d="M29.8216 5.04998L27.6137 2.84208C27.3756 2.60391 26.9895 2.60391 26.7513 2.84208L15.3895 14.2033L11.3363 10.1504C11.0981 9.91224 10.712 9.91224 10.4738 10.1504L8.26593 12.3583C8.15157 12.4727 8.08722 12.6279 8.08722 12.7895C8.08722 12.9512 8.15157 13.1064 8.26593 13.2207L14.9582 19.9124C15.0775 20.0317 15.2333 20.0912 15.3895 20.0912C15.5459 20.0912 15.7011 20.0317 15.8207 19.9124L29.8213 5.9124C29.9357 5.79805 30 5.64282 30 5.48119C30 5.31957 29.936 5.16434 29.8216 5.04998Z" fill="#FD794F"/>
<path d="M22.4398 22.6952H3.04959V3.30471H22.9018L25.4894 0.865044C25.4894 0.52837 25.2161 0.255127 24.8794 0.255127H0.609917C0.273243 0.255127 0 0.52837 0 0.865044V25.1349C0 25.4715 0.273243 25.7448 0.609917 25.7448H24.8797C25.2167 25.7448 25.4897 25.4715 25.4897 25.1349V13.583L22.4401 16.7851L22.4398 22.6952Z" fill="#FD794F"/>
</svg>
