<svg width="168" height="78" viewBox="0 0 168 78" fill="none" xmlns="http://www.w3.org/2000/svg">
<circle cx="129" cy="39" r="39" fill="#FD794F"/>
<path d="M21.492 37.864C21.492 39.328 21.156 40.672 20.484 41.896C19.812 43.096 18.78 44.068 17.388 44.812C15.996 45.556 14.268 45.928 12.204 45.928H8.388V55H2.232V29.728H12.204C14.22 29.728 15.924 30.076 17.316 30.772C18.708 31.468 19.752 32.428 20.448 33.652C21.144 34.876 21.492 36.28 21.492 37.864ZM11.736 41.032C12.912 41.032 13.788 40.756 14.364 40.204C14.94 39.652 15.228 38.872 15.228 37.864C15.228 36.856 14.94 36.076 14.364 35.524C13.788 34.972 12.912 34.696 11.736 34.696H8.388V41.032H11.736ZM27.7928 32.824C26.7128 32.824 25.8248 32.512 25.1288 31.888C24.4568 31.24 24.1208 30.448 24.1208 29.512C24.1208 28.552 24.4568 27.76 25.1288 27.136C25.8248 26.488 26.7128 26.164 27.7928 26.164C28.8488 26.164 29.7128 26.488 30.3848 27.136C31.0808 27.76 31.4288 28.552 31.4288 29.512C31.4288 30.448 31.0808 31.24 30.3848 31.888C29.7128 32.512 28.8488 32.824 27.7928 32.824ZM30.8528 34.912V55H24.6968V34.912H30.8528ZM41.074 49.924H49.786V55H34.198V50.104L42.55 39.988H34.27V34.912H49.606V39.808L41.074 49.924ZM58.9334 49.924H67.6454V55H52.0574V50.104L60.4094 39.988H52.1294V34.912H67.4654V39.808L58.9334 49.924ZM69.8088 44.92C69.8088 42.856 70.1928 41.044 70.9608 39.484C71.7528 37.924 72.8208 36.724 74.1648 35.884C75.5088 35.044 77.0088 34.624 78.6648 34.624C80.0808 34.624 81.3168 34.912 82.3728 35.488C83.4528 36.064 84.2808 36.82 84.8568 37.756V34.912H91.0128V55H84.8568V52.156C84.2568 53.092 83.4168 53.848 82.3368 54.424C81.2808 55 80.0448 55.288 78.6288 55.288C76.9968 55.288 75.5088 54.868 74.1648 54.028C72.8208 53.164 71.7528 51.952 70.9608 50.392C70.1928 48.808 69.8088 46.984 69.8088 44.92ZM84.8568 44.956C84.8568 43.42 84.4248 42.208 83.5608 41.32C82.7208 40.432 81.6888 39.988 80.4648 39.988C79.2408 39.988 78.1968 40.432 77.3328 41.32C76.4928 42.184 76.0728 43.384 76.0728 44.92C76.0728 46.456 76.4928 47.68 77.3328 48.592C78.1968 49.48 79.2408 49.924 80.4648 49.924C81.6888 49.924 82.7208 49.48 83.5608 48.592C84.4248 47.704 84.8568 46.492 84.8568 44.956ZM98.3464 55.288C97.2664 55.288 96.3784 54.976 95.6824 54.352C95.0104 53.704 94.6744 52.912 94.6744 51.976C94.6744 51.016 95.0104 50.212 95.6824 49.564C96.3784 48.916 97.2664 48.592 98.3464 48.592C99.4024 48.592 100.266 48.916 100.938 49.564C101.634 50.212 101.982 51.016 101.982 51.976C101.982 52.912 101.634 53.704 100.938 54.352C100.266 54.976 99.4024 55.288 98.3464 55.288ZM104.403 44.956C104.403 42.868 104.823 41.044 105.663 39.484C106.527 37.924 107.715 36.724 109.227 35.884C110.763 35.044 112.515 34.624 114.483 34.624C117.003 34.624 119.103 35.284 120.783 36.604C122.487 37.924 123.603 39.784 124.131 42.184H117.579C117.027 40.648 115.959 39.88 114.375 39.88C113.247 39.88 112.347 40.324 111.675 41.212C111.003 42.076 110.667 43.324 110.667 44.956C110.667 46.588 111.003 47.848 111.675 48.736C112.347 49.6 113.247 50.032 114.375 50.032C115.959 50.032 117.027 49.264 117.579 47.728H124.131C123.603 50.08 122.487 51.928 120.783 53.272C119.079 54.616 116.979 55.288 114.483 55.288C112.515 55.288 110.763 54.868 109.227 54.028C107.715 53.188 106.527 51.988 105.663 50.428C104.823 48.868 104.403 47.044 104.403 44.956ZM136.567 55.288C134.599 55.288 132.823 54.868 131.239 54.028C129.679 53.188 128.443 51.988 127.531 50.428C126.643 48.868 126.199 47.044 126.199 44.956C126.199 42.892 126.655 41.08 127.567 39.52C128.479 37.936 129.727 36.724 131.311 35.884C132.895 35.044 134.671 34.624 136.639 34.624C138.607 34.624 140.383 35.044 141.967 35.884C143.551 36.724 144.799 37.936 145.711 39.52C146.623 41.08 147.079 42.892 147.079 44.956C147.079 47.02 146.611 48.844 145.675 50.428C144.763 51.988 143.503 53.188 141.895 54.028C140.311 54.868 138.535 55.288 136.567 55.288ZM136.567 49.96C137.743 49.96 138.739 49.528 139.555 48.664C140.395 47.8 140.815 46.564 140.815 44.956C140.815 43.348 140.407 42.112 139.591 41.248C138.799 40.384 137.815 39.952 136.639 39.952C135.439 39.952 134.443 40.384 133.651 41.248C132.859 42.088 132.463 43.324 132.463 44.956C132.463 46.564 132.847 47.8 133.615 48.664C134.407 49.528 135.391 49.96 136.567 49.96Z" fill="#131313"/>
</svg>
