<svg width="60" height="60" viewBox="0 0 60 60" fill="none" xmlns="http://www.w3.org/2000/svg">
<g clip-path="url(#clip0_44_20)">
<rect width="60" height="60" fill="white"/>
<path d="M60 0H0V60H60V0Z" fill="#FD794F"/>
<path d="M7.94897 44.4761C11.9421 47.0087 16.6789 48.4743 21.7565 48.4743C36.0213 48.4743 47.5849 36.9094 47.5849 22.6459C47.5849 22.2897 47.5774 21.9362 47.5637 21.5838C48.0796 21.1778 51.2707 18.6201 52.0529 16.9758C52.0529 16.9758 49.4615 18.0528 46.9253 18.3065C46.9203 18.3065 46.9141 18.3076 46.9091 18.3076C46.9091 18.3076 46.9141 18.3051 46.9228 18.299C47.1564 18.1428 50.4236 15.9187 50.866 13.2688C50.866 13.2688 49.0331 14.2471 46.4667 15.103C46.0418 15.2441 45.5971 15.3829 45.1385 15.5115C43.4843 13.746 41.1329 12.644 38.5228 12.644C33.5163 12.644 29.4594 16.6997 29.4594 21.7024C29.4594 22.4084 29.5407 23.0955 29.6943 23.7552C28.9947 23.7265 18.3406 23.1292 11.0927 14.3519C11.0927 14.3519 6.7609 20.2655 13.6741 26.3465C13.6741 26.3465 11.5726 26.2627 9.75951 25.1795C9.75951 25.1795 9.0936 32.3437 16.9226 34.1754C16.9226 34.1754 15.382 34.7589 12.9244 34.3429C12.9244 34.3429 14.2988 40.1316 21.2545 40.6726C21.2545 40.6726 15.7542 45.6413 7.94647 44.4755L7.94897 44.4761Z" fill="white"/>
</g>
<defs>
<clipPath id="clip0_44_20">
<rect width="60" height="60" fill="white"/>
</clipPath>
</defs>
</svg>
